#!OML:ASF H:\Martial Arts Walks\Project 1\Capture day 1\Session 1\male.ASF
:FULLY-SPECIFIED
:DEGREES
230
root -0.875381 11.4598 11.2611 9.55609 1.86762 -1.8435
lowerback 19.3096 1.63869 -2.24889
upperback -3.59104 1.79505 1.08271
thorax -15.1454 1.08252 1.94298
lowerneck -9.10393 -3.03623 -5.44578
upperneck 7.17303 -3.82946 5.02787
head 3.82638 -1.79083 2.18743
rclavicle 1.34242e-014 8.00108e-015
rhumerus 40.0089 -3.01163 -62.7151
rradius 94.0533
rwrist 20.6496
rhand 1.13759 -13.9383
rfingers 7.12502
rthumb 26.6795 -42.0779
lclavicle 1.34242e-014 8.00108e-015
lhumerus 42.4837 -4.9436 86.2843
lradius 87.6828
lwrist -35.5532
lhand -11.1184 2.11789
lfingers 7.12502
lthumb 14.9064 31.5616
rfemur -74.1012 -5.53327 21.7623
rtibia 108.459
rfoot -33.2328 -17.7719
rtoes -13.237
lfemur -74.9255 11.6847 -18.0293
ltibia 107.512
lfoot -31.357 16.1264
ltoes -13.1751
231
root -0.874913 11.4601 11.2606 9.55908 1.86776 -1.83868
lowerback 19.3204 1.64251 -2.2473
upperback -3.58244 1.79967 1.07842
thorax -15.1417 1.08404 1.93556
lowerneck -9.09595 -3.02955 -5.43569
upperneck 7.15407 -3.8206 5.01762
head 3.81844 -1.78684 2.18338
rclavicle -6.18096e-015 -4.52235e-015
rhumerus 40.0127 -3.02686 -62.7274
rradius 94.0417
rwrist 20.6586
rhand 1.14992 -13.9387
rfingers 7.12502
rthumb 26.6913 -42.0765
lclavicle -6.18096e-015 -4.52235e-015
lhumerus 42.4919 -4.94588 86.284
lradius 87.6815
lwrist -35.5619
lhand -11.1131 2.12397
lfingers 7.12502
lthumb 14.9115 31.5673
rfemur -74.1047 -5.5387 21.7545
rtibia 108.457
rfoot -33.2342 -17.7648
rtoes -13.2539
lfemur -74.9298 11.6737 -18.0364
ltibia 107.51
lfoot -31.3479 16.1391
ltoes -13.1735
232
root -0.874516 11.4602 11.2602 9.56386 1.86739 -1.84186
lowerback 19.326 1.64532 -2.24108
upperback -3.57145 1.80475 1.07789
thorax -15.1319 1.08551 1.92975
lowerneck -9.09918 -3.02364 -5.4284
upperneck 7.14497 -3.81227 5.00815
head 3.81543 -1.78297 2.17982
rclavicle 2.6339e-015 -3.97569e-015
rhumerus 40.0224 -3.03944 -62.7414
rradius 94.03
rwrist 20.6605
rhand 1.16877 -13.943
rfingers 7.12502
rthumb 26.7094 -42.0781
lclavicle 2.6339e-015 -3.97569e-015
lhumerus 42.5022 -4.94457 86.2832
lradius 87.6806
lwrist -35.5654
lhand -11.1088 2.12561
lfingers 7.12502
lthumb 14.9157 31.5686
rfemur -74.1099 -5.53446 21.7547
rtibia 108.453
rfoot -33.229 -17.7665
rtoes -13.2655
lfemur -74.9394 11.665 -18.034
ltibia 107.51
lfoot -31.339 16.1501
ltoes -13.1846
233
root -0.874203 11.4602 11.2598 9.57097 1.86625 -1.84985
lowerback 19.329 1.64718 -2.23348
upperback -3.56074 1.80931 1.0798
thorax -15.1209 1.08678 1.92613
lowerneck -9.11277 -3.01812 -5.42233
upperneck 7.14978 -3.80435 5.00001
head 3.81843 -1.77911 2.17668
rclavicle 3.29051e-014 1.52567e-014
rhumerus 40.0341 -3.04707 -62.7577
rradius 94.0179
rwrist 20.654
rhand 1.19302 -13.9507
rfingers 7.12502
rthumb 26.7326 -42.0822
lclavicle 3.29051e-014 1.52567e-014
lhumerus 42.511 -4.94003 86.283
lradius 87.6786
lwrist -35.5634
lhand -11.107 2.11823
lfingers 7.12502
lthumb 14.9174 31.5611
rfemur -74.1191 -5.52127 21.7592
rtibia 108.45
rfoot -33.2177 -17.7741
rtoes -13.2702
lfemur -74.9541 11.6574 -18.0257
ltibia 107.514
lfoot -31.3296 16.16
ltoes -13.1991
234
root -0.873998 11.4601 11.2595 9.57896 1.86497 -1.86337
lowerback 19.331 1.64862 -2.22344
upperback -3.55148 1.81425 1.08388
thorax -15.1111 1.08818 1.9235
lowerneck -9.13608 -3.01361 -5.41823
upperneck 7.17199 -3.79796 4.99544
head 3.8285 -1.77571 2.17467
rclavicle -2.11022e-014 2.5842e-015
rhumerus 40.0432 -3.05096 -62.7735
rradius 94.0069
rwrist 20.6412
rhand 1.21466 -13.9579
rfingers 7.12502
rthumb 26.7533 -42.0862
lclavicle -2.11022e-014 2.5842e-015
lhumerus 42.5163 -4.93537 86.2827
lradius 87.675
lwrist -35.5563
lhand -11.1121 2.10474
lfingers 7.12502
lthumb 14.9125 31.548
rfemur -74.1296 -5.50067 21.7698
rtibia 108.446
rfoot -33.2015 -17.7893
rtoes -13.2631
lfemur -74.9705 11.6511 -18.0098
ltibia 107.519
lfoot -31.3225 16.1655
ltoes -13.2072
235
root -0.873927 11.4598 11.2593 9.58734 1.8614 -1.88081
lowerback 19.3325 1.65048 -2.21414
upperback -3.54332 1.81984 1.08958
thorax -15.1024 1.09007 1.92292
lowerneck -9.16683 -3.00973 -5.41257
upperneck 7.20662 -3.79274 4.99159
head 3.84362 -1.77269 2.17244
rclavicle -1.80149e-015 4.82053e-015
rhumerus 40.0503 -3.0506 -62.7877
rradius 93.9986
rwrist 20.6236
rhand 1.22939 -13.9672
rfingers 7.12502
rthumb 26.7674 -42.0934
lclavicle -1.80149e-015 4.82053e-015
lhumerus 42.5196 -4.93083 86.2822
lradius 87.667
lwrist -35.5483
lhand -11.1289 2.08766
lfingers 7.12502
lthumb 14.8964 31.5321
rfemur -74.1403 -5.47209 21.7845
rtibia 108.443
rfoot -33.1856 -17.8088
rtoes -13.2539
lfemur -74.9872 11.6487 -17.9887
ltibia 107.525
lfoot -31.3189 16.1638
ltoes -13.2058
236
root -0.873876 11.4596 11.2593 9.59441 1.85814 -1.89558
lowerback 19.3329 1.65271 -2.20773
upperback -3.53598 1.82502 1.09392
thorax -15.0941 1.09195 1.92258
lowerneck -9.19733 -3.00875 -5.40482
upperneck 7.24683 -3.79199 4.98903
head 3.86063 -1.77174 2.16996
rclavicle -1.81329e-014 -1.78409e-014
rhumerus 40.0512 -3.04792 -62.7979
rradius 93.9917
rwrist 20.6088
rhand 1.23304 -13.9741
rfingers 7.12502
rthumb 26.7709 -42.0998
lclavicle -1.81329e-014 -1.78409e-014
lhumerus 42.5199 -4.92992 86.2818
lradius 87.6549
lwrist -35.5414
lhand -11.1456 2.07035
lfingers 7.12502
lthumb 14.8803 31.516
rfemur -74.1484 -5.44342 21.7959
rtibia 108.441
rfoot -33.1716 -17.8291
rtoes -13.2389
lfemur -74.9979 11.643 -17.97
ltibia 107.531
lfoot -31.3158 16.1705
ltoes -13.2072
237
root -0.873888 11.4593 11.2596 9.59921 1.85358 -1.90603
lowerback 19.3345 1.65635 -2.20687
upperback -3.5293 1.83047 1.09677
thorax -15.0874 1.09438 1.9236
lowerneck -9.22337 -3.0108 -5.39555
upperneck 7.28631 -3.79571 4.98641
head 3.87689 -1.77302 2.16697
rclavicle 2.85753e-015 1.15295e-014
rhumerus 40.0452 -3.04312 -62.8011
rradius 93.9853
rwrist 20.6017
rhand 1.225 -13.9781
rfingers 7.12502
rthumb 26.7632 -42.1049
lclavicle 2.85753e-015 1.15295e-014
lhumerus 42.5186 -4.93257 86.2817
lradius 87.6398
lwrist -35.5347
lhand -11.1563 2.05622
lfingers 7.12502
lthumb 14.87 31.5026
rfemur -74.1533 -5.41519 21.8026
rtibia 108.44
rfoot -33.1614 -17.8509
rtoes -13.2304
lfemur -75.0028 11.6364 -17.9547
ltibia 107.536
lfoot -31.3156 16.177
ltoes -13.1997
238
root -0.873959 11.4592 11.2601 9.60125 1.84905 -1.91279
lowerback 19.3366 1.66025 -2.2099
upperback -3.52198 1.83504 1.09793
thorax -15.0804 1.09664 1.92519
lowerneck -9.2424 -3.01509 -5.38564
upperneck 7.31822 -3.80283 4.98605
head 3.88991 -1.77595 2.16447
rclavicle -5.00689e-015 1.09829e-014
rhumerus 40.0353 -3.03607 -62.8002
rradius 93.9785
rwrist 20.6069
rhand 1.21074 -13.9774
rfingers 7.12502
rthumb 26.7495 -42.1064
lclavicle -5.00689e-015 1.09829e-014
lhumerus 42.5168 -4.93711 86.2793
lradius 87.6229
lwrist -35.534
lhand -11.1542 2.04566
lfingers 7.12502
lthumb 14.872 31.4919
rfemur -74.1539 -5.38945 21.8055
rtibia 108.439
rfoot -33.1531 -17.8734
rtoes -13.24
lfemur -75.0013 11.6282 -17.9434
ltibia 107.539
lfoot -31.3134 16.1933
ltoes -13.1991
239
root -0.874017 11.4592 11.2607 9.60062 1.84383 -1.915
lowerback 19.3401 1.66408 -2.21717
upperback -3.51438 1.83822 1.09773
thorax -15.0739 1.09856 1.92808
lowerneck -9.25211 -3.02044 -5.37711
upperneck 7.33922 -3.81149 4.98755
head 3.89822 -1.77973 2.1628
rclavicle -7.54761e-015 -8.05078e-015
rhumerus 40.0221 -3.02512 -62.7959
rradius 93.9713
rwrist 20.6225
rhand 1.20204 -13.9737
rfingers 7.12502
rthumb 26.7412 -42.1039
lclavicle -7.54761e-015 -8.05078e-015
lhumerus 42.5131 -4.94098 86.2742
lradius 87.6059
lwrist -35.5359
lhand -11.137 2.03575
lfingers 7.12502
lthumb 14.8885 31.4807
rfemur -74.1502 -5.36766 21.8032
rtibia 108.439
rfoot -33.1502 -17.8914
rtoes -13.2504
lfemur -74.9955 11.6191 -17.9372
ltibia 107.541
lfoot -31.3106 16.214
ltoes -13.195
240
root -0.874088 11.4594 11.2613 9.59921 1.83972 -1.91789
lowerback 19.3447 1.6665 -2.22272
upperback -3.50718 1.83988 1.09735
thorax -15.0683 1.09964 1.93024
lowerneck -9.25415 -3.02534 -5.37152
upperneck 7.35018 -3.81954 4.99264
head 3.90232 -1.78324 2.16288
rclavicle -1.5822e-014 -8.64713e-015
rhumerus 40.008 -3.01118 -62.7907
rradius 93.9643
rwrist 20.6447
rhand 1.20224 -13.9671
rfingers 7.12502
rthumb 26.7414 -42.0973
lclavicle -1.5822e-014 -8.64713e-015
lhumerus 42.5096 -4.94423 86.2634
lradius 87.5917
lwrist -35.5384
lhand -11.1066 2.03256
lfingers 7.12502
lthumb 14.9178 31.4754
rfemur -74.1433 -5.34891 21.8024
rtibia 108.437
rfoot -33.1492 -17.9088
rtoes -13.2641
lfemur -74.9884 11.61 -17.9306
ltibia 107.542
lfoot -31.3044 16.2405
ltoes -13.2035
